<svg width="138" height="138" viewBox="0 0 138 138" fill="none" xmlns="http://www.w3.org/2000/svg">
  <path
    d="M4.63379 41.9559V96.0768C4.63379 99.5104 6.46102 102.715 9.46289 104.416L56.1877 131.46C59.1569 133.193 62.844 133.193 65.8132 131.46L112.571 104.416C115.54 102.682 117.4 99.5104 117.4 96.0768V41.9559C117.4 38.5223 115.573 35.3175 112.571 33.5844L65.8132 6.5403C62.844 4.80712 59.1569 4.80712 56.1877 6.5403L9.43026 33.5844C6.49364 35.3175 4.63379 38.4896 4.63379 41.9559Z"
    fill="#213147" />
  <path
    d="M71.2293 79.4972L64.5404 97.81C64.3446 98.3005 64.3446 98.8891 64.5404 99.3796L75.9932 130.904L89.2732 123.219L73.3502 79.4645C72.9913 78.4834 71.5883 78.4834 71.2293 79.4972Z"
    fill="#12AAFF" />
  <path
    d="M84.5743 48.6597C84.2153 47.646 82.8123 47.646 82.4207 48.6597L75.7318 66.9725C75.536 67.4957 75.536 68.0517 75.7318 68.5422L94.5261 120.178L107.806 112.493L84.5743 48.6597Z"
    fill="#12AAFF" />
  <path
    d="M61.0163 8.53507C61.3426 8.53507 61.6689 8.63318 61.9626 8.79668L112.538 38.0645C113.125 38.3915 113.484 39.0128 113.484 39.6995V98.2351C113.484 98.9218 113.125 99.5431 112.538 99.8701L61.9626 129.171C61.6689 129.334 61.3426 129.432 61.0163 129.432C60.69 129.432 60.3637 129.334 60.0701 129.171L9.49505 99.9028C8.90773 99.5758 8.54881 98.9545 8.54881 98.2678V39.6995C8.54881 39.0128 8.90773 38.3915 9.49505 38.0645L60.0701 8.79668C60.3637 8.63318 60.69 8.53507 61.0163 8.53507ZM61.0163 0C59.2217 0 57.3945 0.490521 55.7957 1.40616L5.22065 30.6739C2.023 32.5379 0 35.9716 0 39.6995V98.2351C0 101.963 1.99037 105.429 5.22065 107.293L55.7957 136.561C57.3945 137.509 59.1891 137.967 61.0163 137.967C62.8435 137.967 64.6381 137.477 66.237 136.561L116.812 107.293C120.042 105.429 122.033 101.996 122.033 98.2351V39.6995C122.033 35.9716 120.042 32.5052 116.812 30.6412L66.237 1.40616C64.6055 0.490521 62.8109 0 61.0163 0Z"
    fill="#9DCCED" />
  <path d="M27.5713 120.243L32.2372 107.49L41.5692 115.272L32.8572 123.284L27.5713 120.243Z" fill="#213147" />
  <path
    d="M56.7424 35.5464H43.9192C42.9729 35.5464 42.0919 36.1351 41.7656 37.0507L14.292 112.591L27.572 120.276L57.8518 37.0834C58.1128 36.3313 57.5581 35.5464 56.7424 35.5464Z"
    fill="white" />
  <path
    d="M79.1916 35.5464H66.3684C65.4222 35.5464 64.5412 36.1351 64.2149 37.0507L32.8584 123.284L46.1384 130.969L80.2684 37.0834C80.5621 36.3313 79.9747 35.5464 79.1916 35.5464Z"
    fill="white" />
</svg>
